/* XPM */
static char *ctp__[] = {
/* columns rows colors chars-per-pixel */
"16 16 7 1",
"  c #191516",
". c #676465",
"X c #807F7F",
"o c #827F80",
"O c #9C9B9B",
"+ c #EBEAEA",
"@ c None",
/* pixels */
"@@@++++++++++@@@",
"@@++++O..O++++@@",
"@+++. ..   .+++@",
"+++.  OOX.  .+++",
"++.  OO+++.  .++",
"++ O+O+++++.  ++",
"+O ++++++++OO O+",
"++++++++++++++++",
"@@@@+++OOOO+@@@@",
"@@@@O+@O+O++@@@@",
"@@@@+O+++++@@@@@",
"++OOOOOOOOOOO+++",
"+++.         +++",
"@+++.      O+++@",
"@@++++OO.O++++@@",
"@@@++++++++++@@@"
};
