/* XPM */
static char *ctp___[] = {
/* columns rows colors chars-per-pixel */
"128 128 6 1",
"  c #211E1F",
". c #646262",
"X c #817F80",
"o c #A09F9F",
"O c #F1F0F0",
"+ c None",
/* pixels */
"++++++++++++++++++++++++++++++++++++++++++++++++++++++++++++++++++++++++++++++++++++++++++++++++++++++++++++++++++++++++++++++++",
"++++++++++++++++++++++++++++++++++++++++++++++++++++++++++++++++++++++++++++++++++++++++++++++++++++++++++++++++++++++++++++++++",
"++++++++++++++++++++++++++++++++++++++++++++++++++++++++++++++++++++++++++++++++++++++++++++++++++++++++++++++++++++++++++++++++",
"++++++++++++++++++++++++++++++++++++++++++++++++++++++++++++++++++++++++++++++++++++++++++++++++++++++++++++++++++++++++++++++++",
"++++++++++++++++++++++++++++++++++++++++++++++++++++++++++++++++++++++++++++++++++++++++++++++++++++++++++++++++++++++++++++++++",
"++++++++++++++++++++++++++++++++++++++++++++++++++++++++++++++++++++++++++++++++++++++++++++++++++++++++++++++++++++++++++++++++",
"+++++++++++++++++++++++++++++++++++++++++++++++++OOOOOOoo...... ....oooooOOOOO++++++++++++++++++++++++++++++++++++++++++++++++++",
"+++++++++++++++++++++++++++++++++++++++++++++OOOOOo.....oooOOOOOOOOooo......oOOOOO++++++++++++++++++++++++++++++++++++++++++++++",
"++++++++++++++++++++++++++++++++++++++++++OOOOoX...OOOOOOOOO+++++++OOOOOOOOo....oOOOO+++++++++++++++++++++++++++++++++++++++++++",
"++++++++++++++++++++++++++++++++++++++++OOOo...ooOOO+++++++++++++++++++++++OOOOo...oOOO+++++++++++++++++++++++++++++++++++++++++",
"+++++++++++++++++++++++++++++++++++++++OO...oOOO+++++++++++++++++++++++++++++++OOOo...OO++++++++++++++++++++++++++++++++++++++++",
"++++++++++++++++++++++++++++++++++++OOo..oOOOO+++++++++++++++++++++++++++++++++++OOOOo..oO++++++++++++++++++++++++++++++++++++++",
"++++++++++++++++++++++++++++++++++OOo..OOOO+++++++++++++++++++++++++++++++++++++++++OOOO..oOO+++++++++++++++++++++++++++++++++++",
"+++++++++++++++++++++++++++++++++OO..oOO++++++++++++++++++OOOOOOOOOO+++++++++++++++++++OOO..OO++++++++++++++++++++++++++++++++++",
"+++++++++++++++++++++++++++++++OO..oOO++++++++++++++++OOOOOOOOoOOOOOOOOOO++++++++++++++++OOo..OO++++++++++++++++++++++++++++++++",
"++++++++++++++++++++++++++++++Oo..OO+++++++++++++OOOOOoo...          ..ooOOOOO+++++++++++++OOX OO+++++++++++++++++++++++++++++++",
"++++++++++++++++++++++++++++OO..oO++++++++++++OOOoX..                     ..XoOOO++++++++++++Oo..OO+++++++++++++++++++++++++++++",
"+++++++++++++++++++++++++++OO..OO++++++++++OOOO.                              .XoOOO++++++++++OOo.OO++++++++++++++++++++++++++++",
"+++++++++++++++++++++++++OOo.oO++++++++++OOOo                                    .oOOO++++++++++Oo.oOO++++++++++++++++++++++++++",
"+++++++++++++++++++++++++Oo.OO+++++++++OOO..                                        oOOO+++++++++Oo.oO++++++++++++++++++++++++++",
"+++++++++++++++++++++++OO..OO+++++++++OOo                                .            oOO+++++++++OO..OO++++++++++++++++++++++++",
"+++++++++++++++++++++++O..OO++++++++OOo               .                                 oOO++++++++OO..O++++++++++++++++++++++++",
"+++++++++++++++++++++OO.oO++++++++OOo.                                                    oOO++++++++Oo.OO++++++++++++++++++++++",
"++++++++++++++++++++OO.oO++++++++OO.                        .                              oOO++++++++Oo.OO+++++++++++++++++++++",
"++++++++++++++++++++O oO++++++++OO.                                                         .oO++++++++Oo.O+++++++++++++++++++++",
"+++++++++++++++++++O.oO++++++++Oo                  oooo.oo..            .                     oO++++++++Oo O++++++++++++++++++++",
"++++++++++++++++++O..O++++++++Oo                  .OOOOOOOOO                   .               XO++++++++O.oO+++++++++++++++++++",
"+++++++++++++++++Oo.O++++++++O.                   .O+OOOO++O                                    .O++++++++O.oO++++++++++++++++++",
"++++++++++++++++Oo.OO+++++++O.      .             .O+Oo.O++o.                                    .O+++++++OO.oO+++++++++++++++++",
"+++++++++++++++OO.oO+++++++O.                     .O+o  o++O                                 .    .O+++++++OO.OO++++++++++++++++",
"+++++++++++++++O.oO+++++++O.                      .O+o  o++O                                       .O+++++++Oo.O++++++++++++++++",
"++++++++++++++Oo.O+++++++O.                       .O+o  o++O      .                  .              oO+++++++O.oO+++++++++++++++",
"+++++++++++++OO.OO++++++Oo         .               O+o..o++O. ooOooOOoOoOoOo                         oO++++++OO.oO++++++++++++++",
"+++++++++++++O.oO++++++OO                         .O+OOOO++O  O+++++++++++OO.             .           OO++++++OO.O++++++++++++++",
"++++++++++++Oo.O++++++OO            .             .O+++++++O  O++++++OOOOOOo                           OO++++++O.oO+++++++++++++",
"++++++++++++O.OO++++++O.                          .O+OOOO++o  O++++++O. oOOO                           .O++++++OO.O+++++++++++++",
"+++++++++++O.oO++++++OX                     .     .O+oooO++O  O++++++O. oOOO                            oO++++++Oo.O++++++++++++",
"+++++++++++O O++++++OO                            .O+o  o++o  O++++++Oo .OOo                             OO++++++O.O++++++++++++",
"++++++++++O.oO++++++O.                     .ooXo. .O+o  o++O  O++++++O. oOOO                             .O++++++Oo.O+++++++++++",
"++++++++++O.O++++++Oo                      O+OOOo .O+o  o++O. O++++++OOOOOOo  .oXoXoo.                    oO++++++O.O+++++++++++",
"+++++++++OXoO++++++O.                      O++++o .O+o..o++O  O+++++++++O+Oo .OOOOOOO.                    .O++++++OooO++++++++++",
"++++++++OO.O++++++Oo                       O++++o .O+OOOO++o  O+++++++++++OO .O+++++Oo                     .O++++++O OO+++++++++",
"++++++++Oo.O+++++OO                        o++++o .O+OOOO++O .O+++++++++++Oo .O+++++O.       .         .    OO+++++O.oO+++++++++",
"++++++++O.oO+++++Oo                        OO+++o .O+OooOO+O  O+++++++++++OO .O+++++O.                      oO+++++Oo.O+++++++++",
"+++++++Oo.O++++++O.          ............  O++++o .O+O. oO+O. O+++++++++++Oo .O+++++O.       .              .O++++++O.oO++++++++",
"+++++++OooO+++++Oo           OOOOOOOOOOOO  O++++o .O+O. oO+o  O+++++++++++OO .O+++++Oo                       oO+++++OoXO++++++++",
"+++++++O.OO+++++O.          .O++++++++++O  o++++o .O+O. oO+O  O+++++++++++OO .O+++++O.                       XO++++++O.O++++++++",
"+++++++O OO+++++O           .O++++++++++O  O++++o .O+OoooO+O  O+++++++++++Oo .O+++++O.                        O++++++O.O++++++++",
"++++++OooO+++++Oo            O++++++++++O. O++++o .O+OOOO++O  O+++++++++++OO .O+++++Oo                        oO+++++OooO+++++++",
"++++++O.o++++++O.           .O++++++++++O  o++++o .O+++++++O  O+++++++++++OO .O+++++O.                        .O++++++o.O+++++++",
"++++++O.O++++++O            .O++++++++++O  OO+++o..O+OOOOO+O  O+++++++++++Oo .O+++++O.                         O++++++O.O+++++++",
"++++++O.O+++++OO            .O++++++++++O  o++++OOOO+O..oO+o .O+++++++++++OO .O+++++Oo                         OO+++++O.O+++++++",
"+++++OooO+++++Oo            .O++++++++++O  O+++++++++O. oO+O  O+++++++++++OO  O+++++O.       .                 oO+++++O.oO++++++",
"+++++O.oO+++++O.   .        .O++++++++++O  O+++++++++O. oO+O  O+++++++++++Oo .O+++++O. oOOOOOOOOOOOOO          .O+++++OooO++++++",
"+++++O.O++++++O              O++++++++++O  O+++++++++O. oO+O  O+++++++++++OO .O+++++Oo .+OO+++++++++O           O++++++O.O++++++",
"+++++O.O++++++O             .O++++++++++O  O+++++++++OOoOO+OooO+++++++++++Oo .O+++++O. .++++++OOOO++O.          O++++++O.O++++++",
"+++++O.O+++++OO             .O++++++++++O. O+++++++++OO+O++OOOO+++++++++++OO .O+++++Oo .++++++OOoOO+O           O++++++O.O++++++",
"+++++o.O+++++Oo              O++++++++++O  oO+++++++++++++++++++++++++++++OO .O+++++O. .++++++O. XO+O           oO+++++O.o++++++",
"+++++ooO+++++O.             .O++++++++++O  O++++++++++++++++++++++++++++++Oo .O+++++O. .++++++O. oO+O.          oO+++++Ooo++++++",
"+++++OOO+++++OOOOOoOOoOOOOoOOO++++++++++OOoOO+++++++++++++++++++++++++++++OO .O+++++OOOO++++++O. .O+OoOOOoOOOOoOOO+++++OOO++++++",
"+++++O+++++++++OO+++++OO++++OO++++++++++OOOOO+++++++++++++++++++++++++++++OO .O+++++OO++++++++Oo.oO+O++O++++++++OO+++++++O++++++",
"++++++++++++++++++++++++++++++++++++++++++++++++++++++++++++++++++++++++++OO .O+++++++++++++++OOOO++++++++++++++++++++++++++++++",
"++++++++++++++++++++++++++++++++++++++++++++++++++++++++++++++++++++++++++Oo .O+++++++++++++++++++++++++++++++++++++++++++++++++",
"++++++++++++++++++++++++++++++++++++++++++++++++++++++++++++++++++++++++++OOooO+++++++++++++++++++++++++++++++++++++++++++++++++",
"+++++++++++++++++++++++++++++++++++++++OOOooOOoOO+++OOo.o.o.o.o.o.ooO++OoooOO.ooOO++++++++++++++++++++++++++++++++++++++++++++++",
"+++++++++++++++++++++++++++++++++++++++o    O    oO+Oo              O++O   O.    oO+++++++++++++++++++++++++++++++++++++++++++++",
"++++++++++++++++++++++++++++++++++++++O.    O.    O+Oo              O++o   O.     .O++++++++++++++++++++++++++++++++++++++++++++",
"+++++++++++++++++++++++++++++++++++++O.    oOO.  OO++Oooooo.   oooooO++O   OOoX    o++++++++++++++++++++++++++++++++++++++++++++",
"+++++++++++++++++++++++++++++++++++++O   .O+++OoOO+++++++++.  .O+++++++O   O+O+O.   O+++++++++++++++++++++++++++++++++++++++++++",
"+++++++++++++++++++++++++++++++++++++o   oO+++OOO++++++++++o  .O+++++++O   O++++O   o+++++++++++++++++++++++++++++++++++++++++++",
"++++++++++++++++++++++++++++++++++++O.  .O+++++++++++++++++.  .O+++++++O   O++++O   O+++++++++++++++++++++++++++++++++++++++++++",
"++++++++++++++++++++++++++++++++++++O   o++++++++++++++++++o  .O+++++++O   O++++o   O+++++++++++++++++++++++++++++++++++++++++++",
"++++++++++++++++++++++++++++++++++++o   O++++++++++++++++++.  .O+++++++O   O++++O   o+++++++++++++++++++++++++++++++++++++++++++",
"++++++++++++++++++++++++++++++++++++o   O++++++++++++++++++o  .O+++++++O   O+OOO.   O+++++++++++++++++++++++++++++++++++++++++++",
"++++++++++++++++++++++++++++++++++++o   O++++++++++++++++++.  .O+++++++O   OOoo    o++++++++++++++++++++++++++++++++++++++++++++",
"++++++++++++++++++++++++++++++++++++o   O++++++++++++++++++.  .O+++++++O   O.     OO++++++++++++++++++++++++++++++++++++++++++++",
"++++++++++++++++++++++++++++++++++++o   o++++++++++++++++++o  .O+++++++O   O.    .O+++++++++++++++++++++++++++++++++++++++++++++",
"++++++++++++++++++++++++++++++++++++O.  o++++++++++++++++++.  .O+++++++O   OOOOOOOO+++++++++++++++++++++++++++++++++++++++++++++",
"++++++++++++++++++++++++++++++++++++O.  .OO++++++++++++++++.  .O+++++++O  .O+O++++++++++++++++++++++++++++++++++++++++++++++++++",
"+++++++++++++++++++++++++++++++++++++.   oO+++OOOO+++++++++.  .O+++++++o   O++++++++++++++++++++++++++++++++++++++++++++++++++++",
"+++++++++++++++++++++++++++++++++++++O.   oO++Oo.O+++++++++o  .O+++++++O   O++++++++++++++++++++++++++++++++++++++++++++++++++++",
"+++++++++++++++++++++++++++++++++++++Oo     Oo   .O++++++++.  .O+++++++O   O++++++++++++++++++++++++++++++++++++++++++++++++++++",
"++++++++++++++++++++++++++++++++++++++Oo    O    .O++++++++.  .O+++++++O   O++++++++++++++++++++++++++++++++++++++++++++++++++++",
"+++++++++++++++++++++++++++++++++++++++OO.  O   .OO++++++++o  oO+++++++O. .O++++++++++++++++++++++++++++++++++++++++++++++++++++",
"+++++++++++++++++++++++++++++++++++++++++OoOOOOoO++++++++++OoOO++++++++OOOOO++++++++++++++++++++++++++++++++++++++++++++++++++++",
"++++++++++++++++++++++++++++++++++++++++++++++++++++++++++++++++++++++++++++++++++++++++++++++++++++++++++++++++++++++++++++++++",
"++++++++++++++++++++++++++++++++++++++++++++++++++++++++++++++++++++++++++++++++++++++++++++++++++++++++++++++++++++++++++++++++",
"++++++++++OO++++++++O+OO+++++O++++++++++++OO++++++++++++O++++++++++++OO++++++++++++O+++++OO++++++++++++O+OO++++++++OO+++++++++++",
"++++++++++OOO++++++OOOOOOOOOOOOOOOOOOOOOOOOOOOOOOOOOOOOOOOOOOOOOOOOOOOOOOOOOOOOOOOOOOOOOOOOOOOOOOOOOOOOOOOOO++++++OOO+++++++++++",
"++++++++++OooO++++++O.   .           .     .           .   .        .                    .   .     .     .O++++++Oo.O+++++++++++",
"+++++++++++O.O++++++OO                                                                                  .O+++++++O.O++++++++++++",
"+++++++++++O.oO++++++Oo                                                                                 oO++++++OooO++++++++++++",
"++++++++++++O.OO++++++O.                   .                               .                           .O++++++OO.O+++++++++++++",
"++++++++++++Oo.O++++++OO                                                          .                   .O+++++++O.oO+++++++++++++",
"+++++++++++++O.oO++++++Oo                                                                             OO++++++Oo.O++++++++++++++",
"+++++++++++++OO.OO++++++Oo   .                    .              .                                   oO++++++OO.OO++++++++++++++",
"++++++++++++++Oo.O+++++++Oo                   .                           .           .             XO+++++++O.oO+++++++++++++++",
"+++++++++++++++O.oO+++++++O.                                           .                           oO+++++++Oo.O++++++++++++++++",
"++++++++++++++++O.O++++++++O.                                                                     .O++++++++O.OO++++++++++++++++",
"++++++++++++++++Oo.O++++++++O.           .                  .                                    oO++++++++O.oO+++++++++++++++++",
"+++++++++++++++++Oo.O+++++++OOo                                .                                oOO+++++++O.oO++++++++++++++++++",
"++++++++++++++++++Oo.O++++++++Oo                       .                                       oO++++++++Oo.O+++++++++++++++++++",
"+++++++++++++++++++O.oO++++++++Oo.                                                            OO++++++++O..O++++++++++++++++++++",
"++++++++++++++++++++O.oO++++++++OO.                                                         .OO++++++++Oo.O+++++++++++++++++++++",
"++++++++++++++++++++OO.oO++++++++OOo                            .                          oOO++++++++Oo.OO+++++++++++++++++++++",
"++++++++++++++++++++++O.oO+++++++++OO.                                                   .OO+++++++++Oo.O+++++++++++++++++++++++",
"+++++++++++++++++++++++O.oO+++++++++OOo                                       .         oOO+++++++++Oo.O++++++++++++++++++++++++",
"++++++++++++++++++++++++Oo.OO+++++++++OO.                                        .    oOO+++++++++OO.oO+++++++++++++++++++++++++",
"+++++++++++++++++++++++++Oo.O++++++++++OOO.                                         XOOO++++++++++O.oO++++++++++++++++++++++++++",
"++++++++++++++++++++++++++Oo.oO++++++++++OOOo.                                   .oOOO++++++++++OO.oO+++++++++++++++++++++++++++",
"+++++++++++++++++++++++++++OO.oOO++++++++++OOOOo.                             .XOOOO++++++++++OO..OO++++++++++++++++++++++++++++",
"++++++++++++++++++++++++++++OOo.OOO+++++++++++OOOOo.                       .ooOO++++++++++++OOo.oOO+++++++++++++++++++++++++++++",
"++++++++++++++++++++++++++++++OO..OO+++++++++++++OOOOooo.. .        ...oooOOOO+++++++++++++OO..OO+++++++++++++++++++++++++++++++",
"+++++++++++++++++++++++++++++++OOo.oOO++++++++++++++++OOOOOOOOoOOOOOOOOOO++++++++++++++++OOo.oOO++++++++++++++++++++++++++++++++",
"+++++++++++++++++++++++++++++++++OO..oOO++++++++++++++++++++OOOOOOO++++++++++++++++++++OOo..OO++++++++++++++++++++++++++++++++++",
"+++++++++++++++++++++++++++++++++++OO..oOOO+++++++++++++++++++++++++++++++++++++++++OOOo..OO++++++++++++++++++++++++++++++++++++",
"+++++++++++++++++++++++++++++++++++++OOo.oOOOO+++++++++++++++++++++++++++++++++++OOOOo.oOO++++++++++++++++++++++++++++++++++++++",
"+++++++++++++++++++++++++++++++++++++++OOo.ooOOO+++++++++++++++++++++++++++++++OOOoo..OO++++++++++++++++++++++++++++++++++++++++",
"++++++++++++++++++++++++++++++++++++++++OOOo...oOOOO++++++++++++++++++++++OOOOOoo..oOOO+++++++++++++++++++++++++++++++++++++++++",
"++++++++++++++++++++++++++++++++++++++++++OOOOoo...OOOOOOOOOOOOOOOOOOOOOOOOo..o.oOOOO+++++++++++++++++++++++++++++++++++++++++++",
"++++++++++++++++++++++++++++++++++++++++++++++OOOOoo..o..ooOoOOOOOoOoo.oo..ooOOOO+++++++++++++++++++++++++++++++++++++++++++++++",
"++++++++++++++++++++++++++++++++++++++++++++++++++OOOOOooo.....  ....oooOOOOO+++++++++++++++++++++++++++++++++++++++++++++++++++",
"++++++++++++++++++++++++++++++++++++++++++++++++++++++++++++++++++++++++++++++++++++++++++++++++++++++++++++++++++++++++++++++++",
"++++++++++++++++++++++++++++++++++++++++++++++++++++++++++++++++++++++++++++++++++++++++++++++++++++++++++++++++++++++++++++++++",
"++++++++++++++++++++++++++++++++++++++++++++++++++++++++++++++++++++++++++++++++++++++++++++++++++++++++++++++++++++++++++++++++",
"++++++++++++++++++++++++++++++++++++++++++++++++++++++++++++++++++++++++++++++++++++++++++++++++++++++++++++++++++++++++++++++++",
"++++++++++++++++++++++++++++++++++++++++++++++++++++++++++++++++++++++++++++++++++++++++++++++++++++++++++++++++++++++++++++++++",
"++++++++++++++++++++++++++++++++++++++++++++++++++++++++++++++++++++++++++++++++++++++++++++++++++++++++++++++++++++++++++++++++"
};
