/* XPM */
static char *ctp__[] = {
/* columns rows colors chars-per-pixel */
"32 32 7 1",
"  c #1E1A1B",
". c #403C3D",
"X c #636161",
"o c #827F80",
"O c #A6A5A5",
"+ c #EBEBEB",
"@ c None",
/* pixels */
"@@@@@@@@@@@@@@@@@@@@@@@@@@@@@@@@",
"@@@@@@@@@++++++++++++++@@@@@@@@@",
"@@@@@@@@+++++@@++@@+++++@@@@@@@@",
"@@@@@@++++@++OOXXoO++@++++@@@@@@",
"@@@@@+++@+O.        XO+@+++@@@@@",
"@@@@+++@+.   .  .     .+@+++@@@@",
"@@@+++@O    X++.        O@+++@@@",
"@@@++@O     OO+XXXX      O@++@@@",
"@@++@+      X++O+++X      +@++@@",
"@@+++.    .OOO+O@++OOX  . X+++@@",
"@++@+  ...X+O++O+@+O@O     O@++@",
"@+++.  +++O+OO+O+@+O@O     X+++@",
"@+++   +@+O++++O+@+O@O.    .+++@",
"@+@O  .+@+O+@++++@+O@OO++O  +@+@",
"@+@+XoX+@+++@+++@@+O@+++O+XXO@+@",
"@+@+++++@@+++++++++O+@@++++++@+@",
"@@@@@@@@@+XO++X.X+OOO+@@@@@@@@@@",
"@@@@@@@@+X++++OX++X+XO@@@@@@@@@@",
"@@@@@@@@+X+@@@+X++X+X+@@@@@@@@@@",
"@@@@@@@@+X+@+@+X++XO+@@@@@@@@@@@",
"@@@@@@@@@+XO+@+X++O+@@@@@@@@@@@@",
"@@@@+@@@@@+++@++@+++@@@@@@@+@@@@",
"@@++++OOOoOOOOOOOOOOOOOOOO++++@@",
"@@++@O                    +@++@@",
"@@@++@+    .    .        O@++@@@",
"@@@+++@O      .         O@+++@@@",
"@@@@+++@+.            X+@+++@@@@",
"@@@@@+++@+OX        XO+@+++@@@@@",
"@@@@@@++++@++OOXXOO++@++++@@@@@@",
"@@@@@@@@+++++@@++@@+++++@@@@@@@@",
"@@@@@@@@@++++++++++++++@@@@@@@@@",
"@@@@@@@@@@@@@@@@@@@@@@@@@@@@@@@@"
};
