/* XPM */
static char *ctp__[] = {
/* columns rows colors chars-per-pixel */
"64 64 7 1",
"  c #211D1E",
". c #5F5C5D",
"X c #A5A4A4",
"o c #C0BFBF",
"O c #C0C0BF",
"+ c #EEEDED",
"@ c None",
/* pixels */
"@@@@@@@@@@@@@@@@@@@@@@@@@@@@@@@@@@@@@@@@@@@@@@@@@@@@@@@@@@@@@@@@",
"@@@@@@@@@@@@@@@@@@@@@@@@@@@@@@@@@@@@@@@@@@@@@@@@@@@@@@@@@@@@@@@@",
"@@@@@@@@@@@@@@@@@@@@@@@@@@@@@@@@@@@@@@@@@@@@@@@@@@@@@@@@@@@@@@@@",
"@@@@@@@@@@@@@@@@@@@@@@+++OoXXoooooXXXo+++@@@@@@@@@@@@@@@@@@@@@@@",
"@@@@@@@@@@@@@@@@@@@+++XXoO++++++++++++oXX+++@@@@@@@@@@@@@@@@@@@@",
"@@@@@@@@@@@@@@@@@++oXO++@@@@@@@@@@@@@@@++OXo+@@@@@@@@@@@@@@@@@@@",
"@@@@@@@@@@@@@@@@+oX++@@@@@@@@+++++@@@@@@@@++Xo+@@@@@@@@@@@@@@@@@",
"@@@@@@@@@@@@@@+OX++@@@@@+++OOXX.XXX++++@@@@@++X++@@@@@@@@@@@@@@@",
"@@@@@@@@@@@@@+Xo+@@@@+++.            ..O++@@@@+OX+@@@@@@@@@@@@@@",
"@@@@@@@@@@@@+X+@@@@++X                  .X++@@@@+X+@@@@@@@@@@@@@",
"@@@@@@@@@@@OX+@@@@+X                  .    X++@@@+XO@@@@@@@@@@@@",
"@@@@@@@@@++X+@@@+X                           O+@@@+X+@@@@@@@@@@@",
"@@@@@@@@@+X+@@@+.        .....                .+@@@+X+@@@@@@@@@@",
"@@@@@@@@+X+@@@+.         ++++O                 .+@@@+X+@@@@@@@@@",
"@@@@@@@+X+@@@+   .       +OX++                   +@@@+X+@@@@@@@@",
"@@@@@@+X+@@@+            OX +O                   .+@@@+o+@@@@@@@",
"@@@@@@+o@@@+.           .++O+O.O+++++X            .+@@@O+@@@@@@@",
"@@@@@+X+@@+X             +++@O.+@@+O+o      .      .+@@+X+@@@@@@",
"@@@@@O+@@@o              +O.+O.+@@+ ++              O@@@+o@@@@@@",
"@@@@+X+@@+           X++ +X +O.+@@+X+O.....         .+@@+o+@@@@@",
"@@@@O+@@+X           O@+.++O+o.+@@@++O.+++o          X+@@+O+@@@@",
"@@@+X+@@+            O@+ ++O+o.+@@@@@O.+@@X           +@@+X+@@@@",
"@@@+O+@+X     oOXooo.O@+.++ +O.+@@@@@O.+@@X           X+@+O+@@@@",
"@@+O+@@+.     +@@@@+.O@+ ++X+O.+@@@@@O.+@@X           .+@@+O+@@@",
"@@+o+@@+      +@@@@+.O@+ ++++O.+@@@@@O.+@@X            +@@+X+@@@",
"@@+o@@+X      +@@@@+.O@+o++O+O.+@@@@@O.+@@o            X+@@o+@@@",
"@@O+@@+.      +@@@@+.O@@@@+ +O.+@@@@@O.+@@X.XXXXXX.    .+@@++@@@",
"@@o+@@+      .+@@@@+.O@@@@+X+OX+@@@@@O.+@@X.@@@+++.     +@@+o@@@",
"@@X+@@O       +@@@@+.O@@@@++@+++@@@@@O.+@@X.@@@OX+X     +@@+X@@@",
"@@++@@+X.XXXX.+@@@@+X+@@@@@@@@@@@@@@@O.+@@Oo@@@X.+O.XX.X+@@+O@@@",
"@@+@@@@+@@++@++@@@@+++@@@@@@@@@@@@@@@o.+@@+@@@@+O+++@@@@+@@@+@@@",
"@@@@@@@@@@@@@@@@@@@@@@@@@@@@@@@@@@@@@+X+@@@@@@@@@@@@@@@@@@@@@@@@",
"@@@@@@@@@@@@@@@@@@@+..XX++O  ..  .++.O..O+@@@@@@@@@@@@@@@@@@@@@@",
"@@@@@@@@@@@@@@@@@@+  XX X+O..  ..X++ oX  o@@@@@@@@@@@@@@@@@@@@@@",
"@@@@@@@@@@@@@@@@@@X o++++@@@@X O@@@O O@+ .+@@@@@@@@@@@@@@@@@@@@@",
"@@@@@@@@@@@@@@@@@+. +@@@@@@@@. +@@@O O@@. +@@@@@@@@@@@@@@@@@@@@@",
"@@@@@@@@@@@@@@@@@+ .+@@@@@@@@X +@@@O O@+ .+@@@@@@@@@@@@@@@@@@@@@",
"@@@@@@@@@@@@@@@@@+ .+@@@@@@@@. +@@@O XX  +@@@@@@@@@@@@@@@@@@@@@@",
"@@@@@@@@@@@@@@@@@+ .+@@@@@@@@X +@@@O OX.O+@@@@@@@@@@@@@@@@@@@@@@",
"@@@@@@@@@@@@@@@@@@. ++@++@@@@. +@@@o O@@@@@@@@@@@@@@@@@@@@@@@@@@",
"@@@@@@@@@@@@@@@@@@+  OO.O@@@@. +@@@+ o@@@@@@@@@@@@@@@@@@@@@@@@@@",
"@@@@@@@@@@@@@@@@@@++ .. O@@@@X +@@@O +@@@@@@@@@@@@@@@@@@@@@@@@@@",
"@@@@@@@@@@@@@@@@@@@@++++@@@@@+++@@@+++@@@@@@@@@@@@@@@@@@@@@@@@@@",
"@@@@++@@@+++@@+@@@@@@@@@@@@++@@@@@++@@@@@+@@++@@@@@+++@@@++@@@@@",
"@@@@+++@@+oXXXXXXXXXXXXXXXXXXXXXoXXXXXXXXXXXXXXXoXXXO+@@+++@@@@@",
"@@@@@O+@@@O                                         O@@@+O@@@@@@",
"@@@@@+X+@@+X                                       .+@@+X+@@@@@@",
"@@@@@@+O@@@+                                      .+@@@o+@@@@@@@",
"@@@@@@+O+@@@+.        .                           +@@@+X+@@@@@@@",
"@@@@@@@+X+@@@+                                  .+@@@+X+@@@@@@@@",
"@@@@@@@@+X+@@@+.                  .            .+@@@+X+@@@@@@@@@",
"@@@@@@@@@+X+@@@+.                             X+@@@+X+@@@@@@@@@@",
"@@@@@@@@@@+X+@@@++                          .O+@@@+X+@@@@@@@@@@@",
"@@@@@@@@@@@+o+@@@@+X                       X+@@@@+X+@@@@@@@@@@@@",
"@@@@@@@@@@@@+X+@@@@++X.                  X++@@@++X+@@@@@@@@@@@@@",
"@@@@@@@@@@@@@+oO+@@@@++OX.           ..+++@@@@+oo+@@@@@@@@@@@@@@",
"@@@@@@@@@@@@@@++X++@@@@@++O+oXXXXXO+O++@@@@@++X++@@@@@@@@@@@@@@@",
"@@@@@@@@@@@@@@@@+OX++@@@@@@@@+++++@@@@@@@@++Xo+@@@@@@@@@@@@@@@@@",
"@@@@@@@@@@@@@@@@@@+OXO++@@@@@@@@@@@@@@@++OoO+@@@@@@@@@@@@@@@@@@@",
"@@@@@@@@@@@@@@@@@@@+++oXO+++++++++++++OoX+++@@@@@@@@@@@@@@@@@@@@",
"@@@@@@@@@@@@@@@@@@@@@@+++OOXXXXXXXXXoO+++@@@@@@@@@@@@@@@@@@@@@@@",
"@@@@@@@@@@@@@@@@@@@@@@@@@@@@@@@@@@@@@@@@@@@@@@@@@@@@@@@@@@@@@@@@",
"@@@@@@@@@@@@@@@@@@@@@@@@@@@@@@@@@@@@@@@@@@@@@@@@@@@@@@@@@@@@@@@@",
"@@@@@@@@@@@@@@@@@@@@@@@@@@@@@@@@@@@@@@@@@@@@@@@@@@@@@@@@@@@@@@@@"
};
